<svg xmlns="http://www.w3.org/2000/svg" xmlns:xlink="http://www.w3.org/1999/xlink" width="500" zoomAndPan="magnify" viewBox="0 0 375 374.999991" height="500" preserveAspectRatio="xMidYMid meet" version="1.0"><defs><g/><clipPath id="6634fb5fab"><path d="M 98.4375 163 L 110 163 L 110 170 L 98.4375 170 Z M 98.4375 163 " clip-rule="nonzero"/></clipPath><clipPath id="573f5b9d4d"><path d="M 112 76.347656 L 266 76.347656 L 266 227 L 112 227 Z M 112 76.347656 " clip-rule="nonzero"/></clipPath></defs><rect x="-37.5" width="450" fill="#ffffff" y="-37.499999" height="449.999989" fill-opacity="1"/><rect x="-37.5" width="450" fill="#ffffff" y="-37.499999" height="449.999989" fill-opacity="1"/><path fill="#a7e821" d="M 230.363281 128.679688 C 233.636719 128.171875 236.859375 127.960938 239.980469 129.304688 C 242.316406 130.308594 243.644531 132.503906 243.34375 134.769531 L 237.480469 132.546875 L 237.398438 132.679688 L 242.566406 136.359375 C 241.140625 137.617188 239.589844 137.960938 237.855469 137.4375 C 235.554688 136.746094 233.886719 135.242188 232.691406 133.207031 C 232.171875 132.316406 231.777344 131.351562 231.308594 130.429688 C 231.03125 129.882812 230.722656 129.347656 230.363281 128.679688 Z M 230.363281 128.679688 " fill-opacity="1" fill-rule="nonzero"/><path fill="#a7e821" d="M 258.621094 134.679688 C 255.726562 134.503906 252.890625 134.582031 250.277344 136.015625 C 248.324219 137.085938 247.34375 139.109375 247.785156 141.066406 L 252.71875 138.644531 L 252.800781 138.753906 L 248.59375 142.386719 C 249.945312 143.367188 251.324219 143.539062 252.800781 142.941406 C 254.753906 142.144531 256.085938 140.699219 256.960938 138.824219 C 257.34375 138.003906 257.609375 137.128906 257.941406 136.285156 C 258.128906 135.78125 258.359375 135.292969 258.621094 134.679688 Z M 258.621094 134.679688 " fill-opacity="1" fill-rule="nonzero"/><path fill="#a7e821" d="M 208.046875 102.3125 C 209.175781 103.792969 210.304688 105.273438 211.476562 106.8125 C 210.066406 107.511719 208.726562 107.453125 207.4375 106.722656 C 205.269531 105.496094 204.097656 103.515625 203.582031 101.148438 C 203.273438 99.714844 203.101562 98.25 202.851562 96.675781 C 203.734375 96.847656 204.644531 96.988281 205.539062 97.207031 C 207.339844 97.636719 209.050781 98.296875 210.554688 99.40625 C 212.773438 101.03125 213.554688 103.371094 212.613281 105.640625 C 211.847656 105.042969 211.097656 104.464844 210.347656 103.878906 C 209.597656 103.296875 208.898438 102.746094 208.164062 102.175781 Z M 208.046875 102.3125 " fill-opacity="1" fill-rule="nonzero"/><path fill="#a7e821" d="M 162.667969 128.363281 L 158.007812 125.304688 L 157.914062 125.390625 L 161.679688 129.570312 C 160.519531 130.296875 159.339844 130.402344 158.128906 129.933594 C 156 129.113281 154.71875 127.464844 153.90625 125.414062 C 153.625 124.699219 153.46875 123.929688 153.273438 123.179688 C 153.058594 122.335938 152.859375 121.484375 152.632812 120.566406 C 155.640625 120.777344 158.59375 121.214844 161.058594 123.175781 C 162.726562 124.515625 163.339844 126.574219 162.667969 128.363281 Z M 162.667969 128.363281 " fill-opacity="1" fill-rule="nonzero"/><path fill="#a7e821" d="M 166.035156 133.171875 C 167.695312 134.050781 168.65625 136.042969 168.304688 138.019531 C 167.746094 141.148438 165.855469 143.476562 163.714844 145.625 C 163.195312 144.664062 162.730469 143.753906 162.226562 142.863281 C 161.082031 140.835938 160.542969 138.695312 161.0625 136.371094 C 161.484375 134.492188 162.777344 133.1875 164.457031 132.941406 L 164.457031 138.449219 L 164.589844 138.480469 Z M 166.035156 133.171875 " fill-opacity="1" fill-rule="nonzero"/><path fill="#a7e821" d="M 243.5 147.054688 L 238.761719 144.25 L 238.695312 144.320312 L 242.726562 148.109375 C 241.429688 149.015625 240.285156 149.152344 239.105469 148.789062 C 236.980469 148.128906 235.636719 146.582031 234.742188 144.628906 C 234.398438 143.882812 234.195312 143.070312 233.949219 142.277344 C 233.707031 141.484375 233.492188 140.699219 233.246094 139.84375 C 235.597656 139.773438 237.894531 140.121094 240.082031 141.082031 C 240.441406 141.234375 240.785156 141.417969 241.113281 141.625 C 243.0625 142.851562 243.925781 144.589844 243.5 147.054688 Z M 243.5 147.054688 " fill-opacity="1" fill-rule="nonzero"/><path fill="#a7e821" d="M 222.847656 103.003906 C 222.640625 101.191406 222.433594 99.398438 222.222656 97.605469 L 222.117188 97.605469 C 221.855469 99.390625 221.59375 101.175781 221.328125 102.960938 C 219.746094 102.601562 218.59375 100.964844 218.507812 99.066406 C 218.410156 96.917969 219.128906 95.050781 220.402344 93.363281 L 222.445312 90.652344 C 224.289062 93.300781 226.03125 96.015625 225.652344 99.5 C 225.546875 100.300781 225.246094 101.015625 224.742188 101.644531 C 224.238281 102.273438 223.605469 102.726562 222.847656 103.003906 Z M 222.847656 103.003906 " fill-opacity="1" fill-rule="nonzero"/><path fill="#a7e821" d="M 250.511719 151.820312 C 249.847656 150.042969 250.023438 148.484375 251.121094 147.058594 C 251.964844 145.96875 253.09375 145.238281 254.328125 144.65625 C 255.917969 143.894531 257.589844 143.398438 259.339844 143.167969 C 259.113281 144.777344 258.976562 146.347656 258.652344 147.878906 C 258.242188 149.816406 257.234375 151.4375 255.535156 152.539062 C 254.335938 153.320312 253.054688 153.472656 251.640625 152.851562 L 254.65625 148.574219 C 254.617188 148.53125 254.582031 148.492188 254.542969 148.449219 C 253.226562 149.550781 251.90625 150.65625 250.511719 151.820312 Z M 250.511719 151.820312 " fill-opacity="1" fill-rule="nonzero"/><path fill="#a7e821" d="M 213.578125 125.644531 C 212.90625 127.292969 211.242188 128.160156 209.335938 127.980469 C 207.394531 127.792969 205.78125 126.945312 204.363281 125.652344 C 203.679688 125.027344 202.976562 124.4375 202.222656 123.78125 C 204.738281 122.277344 207.320312 120.871094 210.457031 121.371094 C 212.066406 121.628906 213.105469 122.648438 213.753906 124.246094 L 208.804688 124.464844 L 208.785156 124.585938 Z M 213.578125 125.644531 " fill-opacity="1" fill-rule="nonzero"/><path fill="#a7e821" d="M 183.671875 145.519531 L 179.90625 148.488281 L 179.984375 148.644531 L 184.449219 146.703125 C 184.738281 148.273438 184.257812 149.488281 183.167969 150.464844 C 182.007812 151.515625 180.644531 152.082031 179.082031 152.160156 C 178.128906 152.214844 177.167969 152.101562 176.214844 152.054688 C 175.546875 152.023438 174.878906 151.976562 174.113281 151.929688 C 174.203125 151.691406 174.289062 151.4375 174.394531 151.195312 C 175.226562 149.242188 176.285156 147.441406 177.898438 146.03125 C 179.726562 144.4375 181.820312 144.238281 183.671875 145.519531 Z M 183.671875 145.519531 " fill-opacity="1" fill-rule="nonzero"/><path fill="#a7e821" d="M 195.996094 103.589844 L 191.429688 105.359375 C 191.441406 105.40625 191.453125 105.453125 191.460938 105.503906 L 196.339844 104.972656 C 195.914062 106.746094 194.953125 107.992188 193.285156 108.363281 C 192.070312 108.640625 190.84375 108.691406 189.609375 108.519531 C 188.050781 108.289062 186.523438 107.742188 184.867188 107.285156 C 185.933594 106.066406 186.78125 104.96875 187.761719 104 C 189.339844 102.441406 191.21875 101.542969 193.511719 101.886719 C 194.558594 102.046875 195.359375 102.625 195.996094 103.589844 Z M 195.996094 103.589844 " fill-opacity="1" fill-rule="nonzero"/><path fill="#a7e821" d="M 218.898438 118.574219 C 218.402344 116.507812 218.996094 114.933594 220.5625 113.730469 C 222.175781 112.496094 224.082031 112.003906 226.046875 111.703125 C 226.660156 111.609375 227.28125 111.578125 227.890625 111.519531 C 227.597656 112.753906 227.355469 113.9375 227.03125 115.105469 C 226.507812 116.992188 225.488281 118.558594 223.769531 119.578125 C 222.523438 120.316406 221.234375 120.371094 219.8125 119.640625 C 220.921875 118.394531 221.984375 117.210938 223.042969 116.023438 L 222.949219 115.894531 Z M 218.898438 118.574219 " fill-opacity="1" fill-rule="nonzero"/><path fill="#a7e821" d="M 140.195312 145.882812 L 137.308594 142.089844 L 137.171875 142.167969 C 137.769531 143.613281 138.367188 145.058594 139.003906 146.597656 C 137.625 146.855469 136.523438 146.480469 135.621094 145.566406 C 134.121094 144.046875 133.613281 142.152344 133.734375 140.070312 C 133.804688 138.890625 133.960938 137.710938 134.082031 136.46875 C 134.253906 136.503906 134.417969 136.550781 134.582031 136.609375 C 136.558594 137.453125 138.375 138.542969 139.78125 140.210938 C 141.316406 142.023438 141.472656 144 140.195312 145.882812 Z M 140.195312 145.882812 " fill-opacity="1" fill-rule="nonzero"/><path fill="#a7e821" d="M 249.945312 161.042969 C 249.355469 159.269531 249.828125 157.640625 251.296875 156.40625 C 252.832031 155.109375 254.691406 154.566406 256.621094 154.222656 C 257.277344 154.105469 257.945312 154.066406 258.597656 153.988281 C 258.355469 155.132812 258.140625 156.191406 257.902344 157.246094 C 257.484375 159.078125 256.605469 160.628906 255.066406 161.746094 C 253.78125 162.683594 252.398438 162.921875 250.824219 162.113281 L 253.972656 158.4375 L 253.902344 158.339844 Z M 249.945312 161.042969 " fill-opacity="1" fill-rule="nonzero"/><path fill="#a7e821" d="M 232.945312 104.347656 C 232.324219 105.171875 231.753906 105.90625 231.199219 106.644531 C 229.910156 108.375 228.289062 109.605469 226.101562 109.90625 C 224.632812 110.109375 223.417969 109.625 222.4375 108.359375 L 226.886719 106.382812 L 226.859375 106.265625 L 222.148438 107.019531 C 222.175781 105.550781 223.21875 104.191406 224.738281 103.605469 C 226.535156 102.914062 228.363281 103.117188 230.175781 103.519531 C 231.121094 103.730469 232.035156 104.070312 232.945312 104.347656 Z M 232.945312 104.347656 " fill-opacity="1" fill-rule="nonzero"/><path fill="#a7e821" d="M 113.335938 184.730469 C 112.980469 183.480469 112.660156 182.449219 112.390625 181.402344 C 111.890625 179.476562 111.960938 177.59375 112.96875 175.828125 C 113.6875 174.574219 114.773438 173.894531 116.332031 173.867188 C 116.144531 174.722656 115.976562 175.5 115.804688 176.277344 C 115.605469 177.0625 115.46875 177.859375 115.386719 178.667969 L 117.632812 174.335938 C 118.816406 175.675781 119.253906 177.074219 118.722656 178.714844 C 118.257812 180.195312 117.320312 181.375 116.203125 182.398438 C 115.3125 183.207031 114.332031 183.925781 113.335938 184.730469 Z M 113.335938 184.730469 " fill-opacity="1" fill-rule="nonzero"/><path fill="#a7e821" d="M 134.300781 147.953125 L 129.84375 146.28125 L 129.78125 146.394531 L 133.679688 149.160156 C 132.652344 150.132812 131.496094 150.375 130.222656 150.050781 C 128.21875 149.535156 126.839844 148.210938 125.875 146.433594 C 125.335938 145.4375 124.867188 144.40625 124.316406 143.292969 C 124.691406 143.222656 125.097656 143.121094 125.511719 143.078125 C 127.40625 142.882812 129.289062 142.875 131.121094 143.5 C 133.253906 144.230469 134.394531 145.804688 134.300781 147.953125 Z M 134.300781 147.953125 " fill-opacity="1" fill-rule="nonzero"/><path fill="#a7e821" d="M 172.511719 142.710938 C 171.035156 140.3125 169.667969 137.90625 170.070312 134.953125 C 170.28125 133.414062 171.234375 132.417969 172.738281 131.730469 C 172.84375 133.375 172.945312 134.929688 173.050781 136.488281 L 173.152344 136.496094 C 173.464844 134.964844 173.777344 133.433594 174.085938 131.894531 C 175.628906 132.460938 176.496094 134.003906 176.382812 135.792969 C 176.269531 137.539062 175.589844 139.042969 174.476562 140.367188 C 173.839844 141.125 173.210938 141.878906 172.511719 142.710938 Z M 172.511719 142.710938 " fill-opacity="1" fill-rule="nonzero"/><path fill="#a7e821" d="M 170.402344 115.871094 C 171.445312 118.320312 172.234375 120.839844 171.550781 123.566406 C 171.136719 125.210938 169.992188 126.1875 168.214844 126.613281 C 168.414062 124.972656 168.605469 123.40625 168.792969 121.839844 L 168.691406 121.804688 C 168.109375 123.261719 167.527344 124.714844 166.945312 126.167969 C 165.648438 125.570312 164.984375 123.929688 165.316406 122.246094 C 165.660156 120.527344 166.507812 119.109375 167.859375 117.996094 C 168.675781 117.292969 169.515625 116.609375 170.402344 115.871094 Z M 170.402344 115.871094 " fill-opacity="1" fill-rule="nonzero"/><path fill="#a7e821" d="M 136.421875 127.078125 L 140.523438 128.878906 C 140.011719 129.9375 138.652344 130.59375 137.308594 130.453125 C 135.222656 130.226562 133.628906 129.152344 132.359375 127.539062 C 131.734375 126.753906 131.128906 125.953125 130.488281 125.121094 C 132.84375 124.199219 135.257812 123.582031 137.8125 124.164062 C 138.226562 124.246094 138.613281 124.394531 138.976562 124.601562 C 139.339844 124.8125 139.664062 125.070312 139.941406 125.382812 C 140.222656 125.695312 140.449219 126.042969 140.617188 126.425781 C 140.785156 126.808594 140.890625 127.210938 140.929688 127.628906 L 136.488281 126.941406 Z M 136.421875 127.078125 " fill-opacity="1" fill-rule="nonzero"/><g clip-path="url(#6634fb5fab)"><path fill="#a7e821" d="M 109.3125 166.570312 L 104.730469 166.570312 L 104.691406 166.652344 L 109.109375 167.917969 C 108.394531 168.96875 107.511719 169.648438 106.324219 169.753906 C 105.574219 169.828125 104.832031 169.765625 104.105469 169.5625 C 101.894531 168.886719 100.148438 167.484375 98.496094 165.71875 C 100.171875 165.007812 101.722656 164.242188 103.351562 163.691406 C 104.539062 163.292969 105.820312 163.410156 107.015625 163.875 C 108.210938 164.34375 109.011719 165.214844 109.3125 166.570312 Z M 109.3125 166.570312 " fill-opacity="1" fill-rule="nonzero"/></g><path fill="#a7e821" d="M 213.375 117.832031 L 209.179688 115.953125 L 209.113281 116.050781 L 212.699219 118.949219 C 211.78125 119.726562 210.789062 119.964844 209.71875 119.699219 C 207.691406 119.199219 206.34375 117.84375 205.453125 116.019531 C 204.945312 114.976562 204.542969 113.886719 204.019531 112.644531 C 205.199219 112.644531 206.359375 112.582031 207.496094 112.660156 C 208.976562 112.757812 210.421875 113.082031 211.671875 113.957031 C 212.964844 114.867188 213.53125 116.125 213.375 117.832031 Z M 213.375 117.832031 " fill-opacity="1" fill-rule="nonzero"/><path fill="#a7e821" d="M 222.871094 128.023438 C 223.820312 126.832031 224.714844 125.703125 225.613281 124.578125 L 225.527344 124.457031 L 222.066406 127.035156 C 221.445312 125.710938 221.753906 124.148438 222.847656 122.996094 C 224.132812 121.644531 225.816406 121.050781 227.5625 120.613281 C 228.285156 120.429688 229.03125 120.347656 229.824219 120.207031 C 229.566406 121.539062 229.378906 122.78125 229.078125 123.992188 C 228.894531 124.769531 228.574219 125.488281 228.117188 126.144531 C 227.660156 126.800781 227.097656 127.351562 226.425781 127.789062 C 225.335938 128.511719 224.175781 128.59375 222.871094 128.023438 Z M 222.871094 128.023438 " fill-opacity="1" fill-rule="nonzero"/><path fill="#a7e821" d="M 139.839844 151.574219 L 141.625 155.597656 L 141.746094 155.566406 C 141.523438 154.148438 141.300781 152.734375 141.078125 151.304688 C 142.839844 151.394531 144.25 152.839844 144.519531 154.792969 C 144.832031 157.039062 144.324219 159.160156 143.488281 161.261719 C 142.503906 160.480469 141.511719 159.792969 140.628906 158.988281 C 139.148438 157.640625 138.230469 156 138.421875 153.914062 C 138.507812 152.957031 138.984375 152.210938 139.839844 151.574219 Z M 139.839844 151.574219 " fill-opacity="1" fill-rule="nonzero"/><path fill="#a7e821" d="M 150.777344 132.058594 L 146.816406 133.832031 L 146.855469 133.9375 L 151.066406 133.265625 C 151.078125 133.757812 150.972656 134.226562 150.753906 134.667969 C 150.53125 135.109375 150.21875 135.472656 149.816406 135.757812 C 148.414062 136.8125 146.800781 137.007812 145.15625 136.652344 C 143.851562 136.367188 142.59375 135.871094 141.222656 135.433594 C 142.746094 133.394531 144.367188 131.546875 146.917969 130.839844 C 148.394531 130.4375 149.605469 130.949219 150.777344 132.058594 Z M 150.777344 132.058594 " fill-opacity="1" fill-rule="nonzero"/><path fill="#a7e821" d="M 188.136719 118.390625 C 188.433594 120.546875 188.539062 122.675781 187.667969 124.734375 C 186.960938 126.417969 185.617188 127.277344 183.808594 127.171875 L 185.320312 123.320312 L 185.210938 123.257812 C 184.40625 124.347656 183.601562 125.441406 182.75 126.589844 C 181.890625 125.671875 181.703125 124.652344 182.003906 123.550781 C 182.507812 121.707031 183.769531 120.488281 185.433594 119.65625 C 186.289062 119.222656 187.164062 118.84375 188.136719 118.390625 Z M 188.136719 118.390625 " fill-opacity="1" fill-rule="nonzero"/><path fill="#a7e821" d="M 248.125 133.484375 C 247.34375 131.9375 247.410156 130.5625 248.382812 129.296875 C 249.820312 127.425781 251.863281 126.53125 254.015625 125.835938 C 254.015625 127.214844 254.078125 128.523438 253.996094 129.828125 C 253.917969 131.074219 253.363281 132.164062 252.53125 133.101562 C 251.65625 134.082031 250.570312 134.492188 249.101562 134.175781 L 250.9375 130.632812 L 250.808594 130.550781 Z M 248.125 133.484375 " fill-opacity="1" fill-rule="nonzero"/><path fill="#a7e821" d="M 175.964844 126.324219 L 177.375 122.761719 L 177.269531 122.691406 L 174.988281 125.761719 C 174.140625 124.777344 173.980469 123.742188 174.386719 122.609375 C 174.960938 121 176.121094 119.933594 177.617188 119.203125 C 178.382812 118.832031 179.160156 118.492188 180.019531 118.097656 C 180.332031 120.328125 180.453125 122.523438 179.3125 124.574219 C 178.613281 125.816406 177.503906 126.371094 175.964844 126.324219 Z M 175.964844 126.324219 " fill-opacity="1" fill-rule="nonzero"/><path fill="#a7e821" d="M 202.453125 135.390625 C 203.25 135.109375 203.929688 134.878906 204.609375 134.628906 C 206.058594 134.097656 207.527344 133.925781 209.011719 134.460938 C 210.300781 134.929688 211.152344 135.777344 211.320312 137.328125 L 207.644531 136.757812 L 207.601562 136.878906 L 210.910156 138.375 C 210.03125 139.484375 208.710938 139.890625 207.324219 139.441406 C 205.167969 138.746094 203.757812 137.148438 202.453125 135.390625 Z M 202.453125 135.390625 " fill-opacity="1" fill-rule="nonzero"/><path fill="#a7e821" d="M 110.929688 142.0625 L 107.335938 142.75 L 107.320312 142.890625 L 110.90625 143.179688 C 110.53125 144.644531 108.953125 145.601562 107.25 145.425781 C 105.285156 145.222656 103.582031 144.378906 101.925781 143.230469 C 103.460938 142.140625 104.679688 140.683594 106.601562 140.269531 C 108.472656 139.863281 109.988281 140.351562 110.777344 141.691406 C 110.832031 141.8125 110.886719 141.9375 110.929688 142.0625 Z M 110.929688 142.0625 " fill-opacity="1" fill-rule="nonzero"/><path fill="#a7e821" d="M 163.699219 115.070312 C 162.550781 115.980469 161.386719 116.265625 160.125 115.738281 C 157.945312 114.824219 156.695312 113.011719 155.582031 111.039062 C 156.734375 110.804688 157.789062 110.546875 158.855469 110.382812 C 160.253906 110.15625 161.539062 110.4375 162.714844 111.226562 C 163.695312 111.863281 164.199219 112.769531 164.136719 114.046875 L 160.667969 113.058594 L 160.597656 113.207031 Z M 163.699219 115.070312 " fill-opacity="1" fill-rule="nonzero"/><path fill="#a7e821" d="M 127.984375 180.214844 C 128.167969 179.15625 128.296875 178.15625 128.523438 177.183594 C 128.792969 175.964844 129.433594 174.992188 130.449219 174.261719 C 131.320312 173.628906 132.257812 173.457031 133.367188 173.953125 L 131.429688 176.5 L 131.535156 176.625 L 134.085938 174.671875 C 134.410156 175.699219 134.4375 176.636719 133.824219 177.433594 C 133.367188 178.027344 132.820312 178.527344 132.183594 178.925781 C 130.917969 179.714844 129.5 180.089844 127.984375 180.214844 Z M 127.984375 180.214844 " fill-opacity="1" fill-rule="nonzero"/><path fill="#a7e821" d="M 104.851562 179.25 C 105.007812 178.265625 105.121094 177.367188 105.304688 176.484375 C 105.574219 175.175781 106.214844 174.066406 107.308594 173.265625 C 108.164062 172.640625 109.09375 172.511719 110.214844 172.953125 L 108.246094 175.574219 L 108.335938 175.683594 L 110.84375 173.761719 C 111.535156 174.683594 111.039062 176.359375 110.097656 177.191406 C 108.875 178.28125 107.390625 178.773438 105.828125 179.101562 C 105.53125 179.167969 105.226562 179.195312 104.851562 179.25 Z M 104.851562 179.25 " fill-opacity="1" fill-rule="nonzero"/><path fill="#a7e821" d="M 242.851562 120.421875 C 244.519531 121.25 246.015625 122.242188 247 123.851562 C 247.757812 125.097656 247.667969 126.34375 246.746094 127.535156 L 244.953125 124.828125 L 244.824219 124.875 C 245.164062 125.894531 245.5 126.914062 245.863281 128.011719 C 244.59375 128.121094 243.738281 127.597656 243.125 126.640625 C 242.375 125.476562 242.1875 124.183594 242.40625 122.832031 C 242.523438 122.046875 242.695312 121.265625 242.851562 120.421875 Z M 242.851562 120.421875 " fill-opacity="1" fill-rule="nonzero"/><path fill="#a7e821" d="M 134.707031 157.972656 L 135.953125 155.230469 C 136.984375 155.992188 137.269531 157.164062 136.777344 158.492188 C 136.285156 159.820312 134.84375 161.457031 133.253906 162.351562 C 132.960938 160.890625 132.511719 159.503906 132.4375 158.09375 C 132.34375 156.3125 133.414062 155.132812 135.0625 154.871094 C 134.992188 155.402344 134.933594 155.902344 134.855469 156.402344 C 134.78125 156.902344 134.679688 157.417969 134.59375 157.925781 Z M 134.707031 157.972656 " fill-opacity="1" fill-rule="nonzero"/><path fill="#a7e821" d="M 128.363281 152.261719 L 125.800781 153.15625 L 125.835938 153.3125 L 128.441406 153.148438 C 128.339844 154.230469 127.496094 155.085938 126.3125 155.289062 C 124.542969 155.601562 122.953125 155.015625 121.1875 154.179688 C 122.277344 153.246094 123.195312 152.242188 124.304688 151.558594 C 125.855469 150.59375 127.402344 150.933594 128.363281 152.261719 Z M 128.363281 152.261719 " fill-opacity="1" fill-rule="nonzero"/><g clip-path="url(#573f5b9d4d)"><path fill="#40b93c" d="M 265.714844 145.285156 C 264.792969 134.136719 261.617188 123.660156 255.917969 114.039062 C 244.613281 94.945312 228.089844 82.886719 206.429688 78.003906 C 202.878906 77.203125 199.203125 76.972656 195.585938 76.484375 C 195.332031 76.449219 195.082031 76.394531 194.832031 76.347656 L 186.578125 76.347656 C 186.300781 76.394531 186.023438 76.449219 185.742188 76.488281 C 182.125 76.972656 178.457031 77.234375 174.894531 78.003906 C 158.40625 81.566406 144.585938 89.761719 133.582031 102.535156 C 122.464844 115.445312 116.476562 130.5 115.457031 147.5 C 115.09375 153.667969 115.503906 159.789062 116.683594 165.855469 C 116.839844 166.703125 117.046875 167.546875 117.230469 168.410156 C 118.097656 168.183594 118.84375 167.964844 119.597656 167.800781 C 120.355469 167.632812 121.121094 167.523438 121.859375 167.390625 C 117.585938 145.960938 121.367188 126.230469 134.738281 108.84375 C 148.109375 91.460938 166.050781 82.152344 187.964844 81.257812 C 208.035156 80.4375 225.425781 87.285156 239.902344 101.230469 C 248.789062 109.785156 254.847656 120.042969 258.316406 131.765625 C 258.316406 131.777344 258.316406 131.785156 258.324219 131.796875 C 258.785156 133.292969 259.277344 135.273438 259.277344 135.273438 L 259.253906 135.328125 C 259.253906 135.34375 259.261719 135.363281 259.265625 135.378906 C 260.386719 140.03125 261.007812 144.746094 261.136719 149.527344 C 261.421875 159.804688 259.617188 169.710938 255.566406 179.171875 C 253.050781 185.039062 250.058594 190.613281 245.457031 195.179688 C 242.367188 198.242188 239.050781 200.9375 235.039062 202.6875 C 233.136719 203.519531 231.171875 204.011719 229.066406 203.753906 C 227.453125 203.554688 226.351562 202.6875 225.996094 201.101562 C 225.789062 200.214844 225.714844 199.316406 225.765625 198.40625 C 226.015625 194.773438 227.015625 191.320312 228.546875 188.03125 C 230.550781 183.738281 233.46875 180.054688 236.496094 176.453125 C 239.117188 173.335938 241.90625 170.347656 244.378906 167.117188 C 248.207031 162.101562 249.765625 156.410156 248.535156 150.125 C 248.171875 148.277344 247.441406 146.507812 247.007812 144.671875 C 246.042969 140.574219 245.972656 136.398438 246.046875 132.214844 C 246.046875 131.921875 246.046875 131.628906 246.046875 131.339844 C 244.789062 134.039062 244.019531 136.832031 243.902344 139.789062 C 243.78125 142.914062 244.644531 145.898438 245.21875 148.921875 C 245.695312 151.453125 246.121094 154.003906 245.550781 156.5625 C 244.5625 161.019531 241.878906 164.382812 238.445312 167.230469 C 238.421875 167.25 238.355469 167.230469 238.238281 167.207031 C 239.015625 165.179688 238.996094 163.101562 238.660156 161.003906 C 238.105469 157.496094 236.871094 154.25 234.957031 151.257812 C 232.414062 147.285156 229.734375 143.402344 227.0625 139.511719 C 224.550781 135.855469 222.058594 132.1875 220.152344 128.167969 C 218.734375 125.171875 217.679688 122.066406 217.417969 118.742188 C 217.03125 113.800781 218.546875 109.441406 221.496094 105.523438 C 221.621094 105.359375 221.738281 105.179688 221.859375 105.011719 C 216.179688 110.546875 213.707031 117.222656 214.699219 125.089844 C 215.429688 130.882812 217.789062 136.027344 221.183594 140.71875 C 222.210938 142.136719 223.367188 143.460938 224.289062 144.605469 C 222.886719 144.539062 221.25 144.316406 219.648438 144.417969 C 216.933594 144.585938 214.234375 144.972656 211.523438 145.25 C 205.898438 145.828125 201.066406 144.222656 197.207031 139.996094 C 195.546875 138.171875 193.925781 136.316406 192.25 134.507812 C 190.3125 132.414062 188.136719 130.601562 185.484375 129.488281 C 178.90625 126.738281 172.265625 126.636719 165.660156 129.34375 C 162.121094 130.789062 159.285156 133.105469 157.675781 136.695312 C 157.574219 136.929688 157.503906 137.179688 157.414062 137.425781 C 159.65625 134.113281 162.675781 131.957031 166.507812 130.992188 C 172.398438 129.503906 177.921875 130.636719 183.132812 133.554688 C 186.144531 135.242188 188.296875 137.851562 190.375 140.523438 C 192.160156 142.8125 193.898438 145.148438 195.785156 147.351562 C 198.019531 149.96875 200.816406 151.699219 204.339844 151.902344 C 207.785156 152.097656 211.238281 152.136719 214.679688 152.339844 C 216.484375 152.441406 218.308594 152.601562 220.074219 152.972656 C 224.136719 153.832031 226.398438 156.199219 227.039062 160.058594 C 227.425781 162.398438 227.195312 164.710938 226.832031 167.027344 C 226.148438 171.371094 224.542969 175.410156 222.765625 179.390625 C 222.160156 180.75 221.480469 182.078125 220.835938 183.417969 C 220.78125 183.125 220.808594 182.839844 220.910156 182.558594 C 223.789062 172.804688 219.941406 162.859375 211.230469 157.617188 C 206.214844 154.601562 200.683594 153.492188 194.921875 153.464844 C 185.382812 153.421875 176.410156 155.804688 167.941406 160.136719 C 167.339844 160.449219 166.957031 160.40625 166.523438 159.953125 C 165.375 158.753906 164.203125 157.574219 163.066406 156.367188 C 160.617188 153.777344 158.121094 151.261719 154.90625 149.589844 C 150.277344 147.179688 145.46875 146.179688 140.332031 147.628906 C 135.648438 148.949219 131.972656 151.78125 128.855469 155.421875 C 128.542969 155.78125 128.257812 156.171875 127.960938 156.546875 C 129.210938 155.71875 130.347656 154.792969 131.558594 153.964844 C 134.675781 151.839844 138.039062 150.355469 141.855469 150.160156 C 146.144531 149.9375 150.019531 151.285156 153.242188 153.996094 C 156.542969 156.769531 159.535156 159.917969 162.722656 162.957031 C 162.453125 163.144531 162.355469 163.230469 162.246094 163.285156 C 159.421875 164.703125 156.652344 166.246094 153.765625 167.515625 C 147.089844 170.445312 140.148438 171.269531 133.007812 169.589844 C 129.289062 168.714844 125.566406 168.207031 121.753906 168.695312 C 118.535156 169.105469 115.542969 170.097656 113.007812 172.21875 C 112.867188 172.339844 112.722656 172.453125 112.582031 172.570312 C 115.816406 170.726562 119.238281 170.015625 122.835938 170.542969 C 125.835938 170.988281 128.804688 171.59375 131.738281 172.367188 C 138.28125 174.101562 144.777344 174.332031 151.308594 172.398438 C 155.777344 171.074219 159.960938 169.074219 164.105469 166.988281 C 164.765625 166.652344 165.195312 166.675781 165.828125 167.117188 C 171.4375 171.109375 177.558594 172.5 184.320312 170.703125 C 188.597656 169.566406 192.894531 168.488281 197.214844 167.527344 C 199.347656 167.058594 201.550781 167.039062 203.679688 167.742188 C 206.621094 168.714844 208.101562 170.996094 208.832031 173.804688 C 210.609375 180.632812 209.703125 187.136719 206.160156 193.226562 C 202.957031 198.730469 198.253906 202.679688 192.65625 205.542969 C 181.808594 211.113281 170.351562 212.582031 158.421875 210.207031 C 152.066406 208.941406 146.234375 206.394531 141.410156 201.964844 C 136.886719 197.816406 133.234375 192.9375 130.085938 187.679688 C 127.210938 182.878906 124.949219 177.800781 123.304688 172.453125 C 123.222656 172.199219 123.003906 171.820312 122.808594 171.792969 C 121.25 171.554688 119.695312 171.597656 118.148438 171.914062 C 118.222656 172.210938 118.273438 172.433594 118.335938 172.652344 C 129.226562 210.433594 167.757812 233.574219 206.3125 225.292969 C 226.507812 220.953125 242.320312 209.949219 253.75 192.753906 C 260.738281 182.230469 264.660156 170.585938 265.714844 157.992188 C 265.800781 156.992188 265.90625 155.988281 266 154.988281 L 266 148.285156 C 265.902344 147.289062 265.800781 146.289062 265.714844 145.285156 Z M 187.808594 163.472656 C 185.078125 164.292969 182.316406 164.980469 179.453125 165.1875 C 176.519531 165.382812 173.644531 165.039062 170.839844 164.160156 C 175.371094 160.273438 194.230469 157.800781 200.046875 160.382812 C 195.746094 160.878906 191.808594 162.277344 187.808594 163.472656 Z M 187.808594 163.472656 " fill-opacity="1" fill-rule="nonzero"/></g><g fill="#5ddb59" fill-opacity="1"><g transform="translate(21.607574, 271.347083)"><g><path d="M 8.078125 -22.625 L 8.078125 -15.859375 L 17.171875 -15.859375 L 17.171875 -11.5625 L 8.078125 -11.5625 L 8.078125 -4.40625 L 18.328125 -4.40625 L 18.328125 0 L 2.671875 0 L 2.671875 -27.03125 L 18.328125 -27.03125 L 18.328125 -22.625 Z M 8.078125 -22.625 "/></g></g></g><g fill="#5ddb59" fill-opacity="1"><g transform="translate(42.181028, 271.347083)"><g><path d="M 1.359375 -13.53125 C 1.359375 -16.1875 1.957031 -18.566406 3.15625 -20.671875 C 4.351562 -22.773438 5.988281 -24.410156 8.0625 -25.578125 C 10.132812 -26.753906 12.460938 -27.34375 15.046875 -27.34375 C 18.054688 -27.34375 20.695312 -26.566406 22.96875 -25.015625 C 25.238281 -23.472656 26.828125 -21.332031 27.734375 -18.59375 L 21.5 -18.59375 C 20.882812 -19.882812 20.015625 -20.851562 18.890625 -21.5 C 17.765625 -22.144531 16.46875 -22.46875 15 -22.46875 C 13.425781 -22.46875 12.023438 -22.097656 10.796875 -21.359375 C 9.578125 -20.628906 8.625 -19.59375 7.9375 -18.25 C 7.257812 -16.914062 6.921875 -15.34375 6.921875 -13.53125 C 6.921875 -11.75 7.257812 -10.179688 7.9375 -8.828125 C 8.625 -7.484375 9.578125 -6.441406 10.796875 -5.703125 C 12.023438 -4.972656 13.425781 -4.609375 15 -4.609375 C 16.46875 -4.609375 17.765625 -4.9375 18.890625 -5.59375 C 20.015625 -6.25 20.882812 -7.222656 21.5 -8.515625 L 27.734375 -8.515625 C 26.828125 -5.753906 25.242188 -3.601562 22.984375 -2.0625 C 20.734375 -0.53125 18.085938 0.234375 15.046875 0.234375 C 12.460938 0.234375 10.132812 -0.347656 8.0625 -1.515625 C 5.988281 -2.691406 4.351562 -4.320312 3.15625 -6.40625 C 1.957031 -8.5 1.359375 -10.875 1.359375 -13.53125 Z M 1.359375 -13.53125 "/></g></g></g><g fill="#5ddb59" fill-opacity="1"><g transform="translate(71.881054, 271.347083)"><g><path d="M 16.59375 0 L 10.640625 -10.515625 L 8.078125 -10.515625 L 8.078125 0 L 2.671875 0 L 2.671875 -27 L 12.796875 -27 C 14.890625 -27 16.671875 -26.628906 18.140625 -25.890625 C 19.609375 -25.148438 20.707031 -24.15625 21.4375 -22.90625 C 22.175781 -21.65625 22.546875 -20.257812 22.546875 -18.71875 C 22.546875 -16.9375 22.03125 -15.328125 21 -13.890625 C 19.96875 -12.460938 18.429688 -11.476562 16.390625 -10.9375 L 22.859375 0 Z M 8.078125 -14.578125 L 12.609375 -14.578125 C 14.078125 -14.578125 15.171875 -14.929688 15.890625 -15.640625 C 16.617188 -16.347656 16.984375 -17.332031 16.984375 -18.59375 C 16.984375 -19.832031 16.617188 -20.789062 15.890625 -21.46875 C 15.171875 -22.15625 14.078125 -22.5 12.609375 -22.5 L 8.078125 -22.5 Z M 8.078125 -14.578125 "/></g></g></g><g fill="#5ddb59" fill-opacity="1"><g transform="translate(96.669745, 271.347083)"><g><path d="M 15.203125 0.265625 C 12.671875 0.265625 10.347656 -0.320312 8.234375 -1.5 C 6.117188 -2.6875 4.441406 -4.332031 3.203125 -6.4375 C 1.972656 -8.539062 1.359375 -10.921875 1.359375 -13.578125 C 1.359375 -16.203125 1.972656 -18.566406 3.203125 -20.671875 C 4.441406 -22.773438 6.117188 -24.414062 8.234375 -25.59375 C 10.347656 -26.78125 12.671875 -27.375 15.203125 -27.375 C 17.753906 -27.375 20.078125 -26.78125 22.171875 -25.59375 C 24.273438 -24.414062 25.9375 -22.773438 27.15625 -20.671875 C 28.382812 -18.566406 29 -16.203125 29 -13.578125 C 29 -10.921875 28.382812 -8.539062 27.15625 -6.4375 C 25.9375 -4.332031 24.269531 -2.6875 22.15625 -1.5 C 20.039062 -0.320312 17.722656 0.265625 15.203125 0.265625 Z M 15.203125 -4.5625 C 16.828125 -4.5625 18.253906 -4.925781 19.484375 -5.65625 C 20.722656 -6.394531 21.691406 -7.445312 22.390625 -8.8125 C 23.085938 -10.175781 23.4375 -11.765625 23.4375 -13.578125 C 23.4375 -15.378906 23.085938 -16.957031 22.390625 -18.3125 C 21.691406 -19.664062 20.722656 -20.703125 19.484375 -21.421875 C 18.253906 -22.140625 16.828125 -22.5 15.203125 -22.5 C 13.578125 -22.5 12.140625 -22.140625 10.890625 -21.421875 C 9.640625 -20.703125 8.664062 -19.664062 7.96875 -18.3125 C 7.269531 -16.957031 6.921875 -15.378906 6.921875 -13.578125 C 6.921875 -11.765625 7.269531 -10.175781 7.96875 -8.8125 C 8.664062 -7.445312 9.640625 -6.394531 10.890625 -5.65625 C 12.140625 -4.925781 13.578125 -4.5625 15.203125 -4.5625 Z M 15.203125 -4.5625 "/></g></g></g><g fill="#5ddb59" fill-opacity="1"><g transform="translate(127.027187, 271.347083)"><g><path d="M 22.359375 -18.640625 C 22.359375 -17.191406 22.015625 -15.835938 21.328125 -14.578125 C 20.640625 -13.316406 19.566406 -12.296875 18.109375 -11.515625 C 16.660156 -10.742188 14.828125 -10.359375 12.609375 -10.359375 L 8.078125 -10.359375 L 8.078125 0 L 2.671875 0 L 2.671875 -27 L 12.609375 -27 C 14.691406 -27 16.46875 -26.632812 17.9375 -25.90625 C 19.40625 -25.1875 20.507812 -24.191406 21.25 -22.921875 C 21.988281 -21.660156 22.359375 -20.234375 22.359375 -18.640625 Z M 12.375 -14.734375 C 13.875 -14.734375 14.984375 -15.070312 15.703125 -15.75 C 16.421875 -16.4375 16.78125 -17.398438 16.78125 -18.640625 C 16.78125 -21.265625 15.3125 -22.578125 12.375 -22.578125 L 8.078125 -22.578125 L 8.078125 -14.734375 Z M 12.375 -14.734375 "/></g></g></g><g fill="#5ddb59" fill-opacity="1"><g transform="translate(150.539714, 271.347083)"><g/></g></g><g fill="#5ddb59" fill-opacity="1"><g transform="translate(159.743624, 271.347083)"><g><path d="M 32.09375 -27 L 32.09375 0 L 26.6875 0 L 26.6875 -17.5625 L 19.453125 0 L 15.359375 0 L 8.078125 -17.5625 L 8.078125 0 L 2.671875 0 L 2.671875 -27 L 8.8125 -27 L 17.40625 -6.921875 L 25.984375 -27 Z M 32.09375 -27 "/></g></g></g><g fill="#5ddb59" fill-opacity="1"><g transform="translate(194.509674, 271.347083)"><g><path d="M 19.21875 -5.140625 L 8.46875 -5.140625 L 6.6875 0 L 1 0 L 10.71875 -27.03125 L 17.015625 -27.03125 L 26.71875 0 L 21 0 Z M 17.75 -9.46875 L 13.84375 -20.765625 L 9.9375 -9.46875 Z M 17.75 -9.46875 "/></g></g></g><g fill="#5ddb59" fill-opacity="1"><g transform="translate(222.198754, 271.347083)"><g><path d="M 25.75 0 L 20.34375 0 L 8.078125 -18.53125 L 8.078125 0 L 2.671875 0 L 2.671875 -27.03125 L 8.078125 -27.03125 L 20.34375 -8.46875 L 20.34375 -27.03125 L 25.75 -27.03125 Z M 25.75 0 "/></g></g></g><g fill="#5ddb59" fill-opacity="1"><g transform="translate(250.622604, 271.347083)"><g><path d="M 19.21875 -5.140625 L 8.46875 -5.140625 L 6.6875 0 L 1 0 L 10.71875 -27.03125 L 17.015625 -27.03125 L 26.71875 0 L 21 0 Z M 17.75 -9.46875 L 13.84375 -20.765625 L 9.9375 -9.46875 Z M 17.75 -9.46875 "/></g></g></g><g fill="#5ddb59" fill-opacity="1"><g transform="translate(278.311673, 271.347083)"><g><path d="M 21.46875 -18.875 C 20.84375 -20.007812 19.988281 -20.875 18.90625 -21.46875 C 17.820312 -22.0625 16.5625 -22.359375 15.125 -22.359375 C 13.519531 -22.359375 12.097656 -21.992188 10.859375 -21.265625 C 9.628906 -20.546875 8.664062 -19.515625 7.96875 -18.171875 C 7.269531 -16.835938 6.921875 -15.289062 6.921875 -13.53125 C 6.921875 -11.726562 7.273438 -10.15625 7.984375 -8.8125 C 8.691406 -7.476562 9.675781 -6.445312 10.9375 -5.71875 C 12.207031 -5 13.679688 -4.640625 15.359375 -4.640625 C 17.421875 -4.640625 19.109375 -5.1875 20.421875 -6.28125 C 21.734375 -7.375 22.597656 -8.898438 23.015625 -10.859375 L 13.734375 -10.859375 L 13.734375 -15 L 28.34375 -15 L 28.34375 -10.28125 C 27.988281 -8.40625 27.21875 -6.664062 26.03125 -5.0625 C 24.84375 -3.46875 23.3125 -2.1875 21.4375 -1.21875 C 19.570312 -0.25 17.476562 0.234375 15.15625 0.234375 C 12.550781 0.234375 10.195312 -0.347656 8.09375 -1.515625 C 6 -2.691406 4.351562 -4.320312 3.15625 -6.40625 C 1.957031 -8.5 1.359375 -10.875 1.359375 -13.53125 C 1.359375 -16.1875 1.957031 -18.566406 3.15625 -20.671875 C 4.351562 -22.773438 6 -24.410156 8.09375 -25.578125 C 10.195312 -26.753906 12.539062 -27.34375 15.125 -27.34375 C 18.164062 -27.34375 20.804688 -26.597656 23.046875 -25.109375 C 25.285156 -23.628906 26.832031 -21.550781 27.6875 -18.875 Z M 21.46875 -18.875 "/></g></g></g><g fill="#5ddb59" fill-opacity="1"><g transform="translate(308.011699, 271.347083)"><g><path d="M 8.078125 -22.625 L 8.078125 -15.859375 L 17.171875 -15.859375 L 17.171875 -11.5625 L 8.078125 -11.5625 L 8.078125 -4.40625 L 18.328125 -4.40625 L 18.328125 0 L 2.671875 0 L 2.671875 -27.03125 L 18.328125 -27.03125 L 18.328125 -22.625 Z M 8.078125 -22.625 "/></g></g></g><g fill="#5ddb59" fill-opacity="1"><g transform="translate(328.585153, 271.347083)"><g><path d="M 16.59375 0 L 10.640625 -10.515625 L 8.078125 -10.515625 L 8.078125 0 L 2.671875 0 L 2.671875 -27 L 12.796875 -27 C 14.890625 -27 16.671875 -26.628906 18.140625 -25.890625 C 19.609375 -25.148438 20.707031 -24.15625 21.4375 -22.90625 C 22.175781 -21.65625 22.546875 -20.257812 22.546875 -18.71875 C 22.546875 -16.9375 22.03125 -15.328125 21 -13.890625 C 19.96875 -12.460938 18.429688 -11.476562 16.390625 -10.9375 L 22.859375 0 Z M 8.078125 -14.578125 L 12.609375 -14.578125 C 14.078125 -14.578125 15.171875 -14.929688 15.890625 -15.640625 C 16.617188 -16.347656 16.984375 -17.332031 16.984375 -18.59375 C 16.984375 -19.832031 16.617188 -20.789062 15.890625 -21.46875 C 15.171875 -22.15625 14.078125 -22.5 12.609375 -22.5 L 8.078125 -22.5 Z M 8.078125 -14.578125 "/></g></g></g><g fill="#ffffff" fill-opacity="1"><g transform="translate(171.970098, 294.284325)"><g><path d="M 1.1875 0 L 1.1875 -10.796875 L 5.140625 -10.796875 C 5.898438 -10.796875 6.53125 -10.671875 7.03125 -10.421875 C 7.539062 -10.171875 7.921875 -9.832031 8.171875 -9.40625 C 8.421875 -8.976562 8.546875 -8.492188 8.546875 -7.953125 C 8.546875 -7.503906 8.460938 -7.125 8.296875 -6.8125 C 8.128906 -6.507812 7.90625 -6.265625 7.625 -6.078125 C 7.351562 -5.898438 7.050781 -5.769531 6.71875 -5.6875 L 6.71875 -5.578125 C 7.082031 -5.554688 7.4375 -5.4375 7.78125 -5.21875 C 8.125 -5.007812 8.40625 -4.710938 8.625 -4.328125 C 8.851562 -3.941406 8.96875 -3.46875 8.96875 -2.90625 C 8.96875 -2.351562 8.835938 -1.859375 8.578125 -1.421875 C 8.316406 -0.984375 7.914062 -0.632812 7.375 -0.375 C 6.84375 -0.125 6.160156 0 5.328125 0 Z M 2.8125 -1.390625 L 5.171875 -1.390625 C 5.953125 -1.390625 6.507812 -1.539062 6.84375 -1.84375 C 7.175781 -2.144531 7.34375 -2.523438 7.34375 -2.984375 C 7.34375 -3.328125 7.253906 -3.640625 7.078125 -3.921875 C 6.910156 -4.203125 6.664062 -4.425781 6.34375 -4.59375 C 6.03125 -4.769531 5.65625 -4.859375 5.21875 -4.859375 L 2.8125 -4.859375 Z M 2.8125 -6.125 L 5 -6.125 C 5.363281 -6.125 5.691406 -6.191406 5.984375 -6.328125 C 6.273438 -6.472656 6.507812 -6.671875 6.6875 -6.921875 C 6.863281 -7.179688 6.953125 -7.484375 6.953125 -7.828125 C 6.953125 -8.273438 6.796875 -8.648438 6.484375 -8.953125 C 6.171875 -9.253906 5.691406 -9.40625 5.046875 -9.40625 L 2.8125 -9.40625 Z M 2.8125 -6.125 "/></g></g></g><g fill="#ffffff" fill-opacity="1"><g transform="translate(184.645231, 294.284325)"><g><path d="M 2.8125 -10.796875 L 2.8125 0 L 1.1875 0 L 1.1875 -10.796875 Z M 2.8125 -10.796875 "/></g></g></g><g fill="#ffffff" fill-opacity="1"><g transform="translate(191.614162, 294.284325)"><g><path d="M 10.5625 -5.390625 C 10.5625 -4.242188 10.347656 -3.253906 9.921875 -2.421875 C 9.503906 -1.597656 8.925781 -0.960938 8.1875 -0.515625 C 7.457031 -0.078125 6.628906 0.140625 5.703125 0.140625 C 4.765625 0.140625 3.929688 -0.078125 3.203125 -0.515625 C 2.472656 -0.960938 1.894531 -1.597656 1.46875 -2.421875 C 1.050781 -3.253906 0.84375 -4.242188 0.84375 -5.390625 C 0.84375 -6.546875 1.050781 -7.535156 1.46875 -8.359375 C 1.894531 -9.191406 2.472656 -9.828125 3.203125 -10.265625 C 3.929688 -10.710938 4.765625 -10.9375 5.703125 -10.9375 C 6.628906 -10.9375 7.457031 -10.710938 8.1875 -10.265625 C 8.925781 -9.828125 9.503906 -9.191406 9.921875 -8.359375 C 10.347656 -7.535156 10.5625 -6.546875 10.5625 -5.390625 Z M 8.953125 -5.390625 C 8.953125 -6.273438 8.8125 -7.019531 8.53125 -7.625 C 8.25 -8.226562 7.859375 -8.679688 7.359375 -8.984375 C 6.867188 -9.296875 6.316406 -9.453125 5.703125 -9.453125 C 5.078125 -9.453125 4.519531 -9.296875 4.03125 -8.984375 C 3.550781 -8.679688 3.164062 -8.226562 2.875 -7.625 C 2.59375 -7.019531 2.453125 -6.273438 2.453125 -5.390625 C 2.453125 -4.515625 2.59375 -3.773438 2.875 -3.171875 C 3.164062 -2.566406 3.550781 -2.109375 4.03125 -1.796875 C 4.519531 -1.492188 5.078125 -1.34375 5.703125 -1.34375 C 6.316406 -1.34375 6.867188 -1.492188 7.359375 -1.796875 C 7.859375 -2.109375 8.25 -2.566406 8.53125 -3.171875 C 8.8125 -3.773438 8.953125 -4.515625 8.953125 -5.390625 Z M 8.953125 -5.390625 "/></g></g></g></svg>
