<svg xmlns="http://www.w3.org/2000/svg" xmlns:xlink="http://www.w3.org/1999/xlink" width="500" zoomAndPan="magnify" viewBox="0 0 375 374.999991" height="500" preserveAspectRatio="xMidYMid meet" version="1.0"><defs><g/><clipPath id="be0810206c"><path d="M 113.746094 106 L 149 106 L 149 138 L 113.746094 138 Z M 113.746094 106 " clip-rule="nonzero"/></clipPath><clipPath id="9d5a6aa646"><path d="M 197 46.777344 L 223 46.777344 L 223 91 L 197 91 Z M 197 46.777344 " clip-rule="nonzero"/></clipPath><clipPath id="0e2691e70b"><path d="M 113.746094 140 L 149 140 L 149 172 L 113.746094 172 Z M 113.746094 140 " clip-rule="nonzero"/></clipPath><clipPath id="aa2450d820"><path d="M 132 155 L 178 155 L 178 231.277344 L 132 231.277344 Z M 132 155 " clip-rule="nonzero"/></clipPath><clipPath id="bf7173aabc"><path d="M 233 127 L 267.238281 127 L 267.238281 159 L 233 159 Z M 233 127 " clip-rule="nonzero"/></clipPath></defs><rect x="-37.5" width="450" fill="#ffffff" y="-37.499999" height="449.999989" fill-opacity="1"/><rect x="-37.5" width="450" fill="#ffffff" y="-37.499999" height="449.999989" fill-opacity="1"/><g clip-path="url(#be0810206c)"><path fill="#80cc28" d="M 113.753906 106.539062 C 113.753906 106.539062 155.609375 103.152344 147.09375 134.875 C 127.828125 143.59375 122.59375 128.449219 119.140625 117.191406 C 117.230469 110.96875 113.753906 106.539062 113.753906 106.539062 " fill-opacity="1" fill-rule="nonzero"/></g><path fill="#80cc28" d="M 148.675781 63.289062 C 148.675781 63.289062 180.667969 90.503906 152.222656 106.914062 C 132.4375 99.449219 139.4375 85.039062 144.957031 74.632812 C 148.003906 68.882812 148.675781 63.289062 148.675781 63.289062 " fill-opacity="1" fill-rule="nonzero"/><g clip-path="url(#9d5a6aa646)"><path fill="#80cc28" d="M 212.886719 46.796875 C 212.886719 46.796875 180.894531 74.011719 209.339844 90.421875 C 229.125 82.953125 222.125 68.542969 216.605469 58.136719 C 213.558594 52.386719 212.886719 46.796875 212.886719 46.796875 " fill-opacity="1" fill-rule="nonzero"/></g><path fill="#80cc28" d="M 228.992188 77.929688 C 228.992188 77.929688 204.175781 99.035156 226.238281 111.761719 C 241.582031 105.972656 236.152344 94.796875 231.875 86.726562 C 229.507812 82.265625 228.992188 77.929688 228.992188 77.929688 " fill-opacity="1" fill-rule="nonzero"/><path fill="#80cc28" d="M 155.515625 106.46875 C 155.515625 106.46875 185.386719 104.457031 179.011719 126.992188 C 165.195312 133.019531 161.605469 122.175781 159.253906 114.117188 C 157.953125 109.660156 155.515625 106.46875 155.515625 106.46875 " fill-opacity="1" fill-rule="nonzero"/><path fill="#1c6434" d="M 228.222656 97.730469 C 228.222656 96.347656 227.105469 95.226562 225.722656 95.226562 C 224.339844 95.226562 223.21875 96.347656 223.21875 97.730469 C 223.21875 99.113281 224.339844 100.234375 225.722656 100.234375 C 227.105469 100.234375 228.222656 99.113281 228.222656 97.730469 Z M 224.511719 101.984375 C 222.660156 101.457031 221.300781 99.753906 221.300781 97.730469 C 221.300781 95.289062 223.277344 93.304688 225.722656 93.304688 C 228.164062 93.304688 230.144531 95.289062 230.144531 97.730469 C 230.144531 99.617188 228.964844 101.21875 227.308594 101.859375 L 227.308594 143.195312 L 199.722656 170.792969 L 199.722656 208.410156 L 196.929688 208.410156 L 196.929688 169.636719 L 224.511719 142.039062 L 224.511719 101.984375 " fill-opacity="1" fill-rule="nonzero"/><path fill="#1c6434" d="M 212.511719 77.035156 C 212.511719 75.648438 211.390625 74.527344 210.007812 74.527344 C 208.625 74.527344 207.507812 75.648438 207.507812 77.035156 C 207.507812 78.414062 208.625 79.535156 210.007812 79.535156 C 211.390625 79.535156 212.511719 78.414062 212.511719 77.035156 Z M 208.683594 81.253906 C 206.886719 80.691406 205.585938 79.015625 205.585938 77.035156 C 205.585938 74.589844 207.566406 72.609375 210.007812 72.609375 C 212.453125 72.609375 214.433594 74.589844 214.433594 77.035156 C 214.433594 78.960938 213.195312 80.597656 211.476562 81.203125 L 211.476562 119.289062 L 199.722656 131.050781 L 199.722656 157.195312 L 196.929688 157.195312 L 196.929688 129.890625 L 208.683594 118.132812 L 208.683594 81.253906 " fill-opacity="1" fill-rule="nonzero"/><path fill="#1c6434" d="M 137.03125 127.523438 C 138.414062 127.523438 139.535156 126.402344 139.535156 125.019531 C 139.535156 123.636719 138.414062 122.515625 137.03125 122.515625 C 135.648438 122.515625 134.527344 123.636719 134.527344 125.019531 C 134.527344 126.402344 135.648438 127.523438 137.03125 127.523438 Z M 137.03125 120.59375 C 139.472656 120.59375 141.457031 122.574219 141.457031 125.019531 C 141.457031 125.753906 141.273438 126.445312 140.957031 127.054688 L 164.660156 150.773438 L 164.660156 165.53125 L 177.144531 178.019531 L 177.144531 196.765625 L 174.351562 196.765625 L 174.351562 179.179688 L 161.867188 166.691406 L 161.867188 151.929688 L 138.949219 129 C 138.371094 129.28125 137.71875 129.445312 137.03125 129.445312 C 134.589844 129.445312 132.609375 127.464844 132.609375 125.019531 C 132.609375 122.574219 134.589844 120.59375 137.03125 120.59375 " fill-opacity="1" fill-rule="nonzero"/><g clip-path="url(#0e2691e70b)"><path fill="#80cc28" d="M 113.753906 141.050781 C 113.753906 141.050781 155.609375 137.660156 147.09375 169.386719 C 127.828125 178.105469 122.59375 162.960938 119.140625 151.703125 C 117.230469 145.476562 113.753906 141.050781 113.753906 141.050781 " fill-opacity="1" fill-rule="nonzero"/></g><g clip-path="url(#aa2450d820)"><path fill="#1c6434" d="M 137.03125 162.035156 C 138.414062 162.035156 139.535156 160.914062 139.535156 159.53125 C 139.535156 158.148438 138.414062 157.027344 137.03125 157.027344 C 135.648438 157.027344 134.527344 158.148438 134.527344 159.53125 C 134.527344 160.914062 135.648438 162.035156 137.03125 162.035156 Z M 137.03125 155.105469 C 139.472656 155.105469 141.457031 157.085938 141.457031 159.53125 C 141.457031 160.265625 141.273438 160.957031 140.957031 161.566406 L 164.660156 185.285156 L 164.660156 200.042969 L 177.144531 212.53125 L 177.144531 231.273438 L 174.351562 231.273438 L 174.351562 213.6875 L 161.867188 201.199219 L 161.867188 186.441406 L 138.949219 163.511719 C 138.371094 163.792969 137.71875 163.957031 137.03125 163.957031 C 134.589844 163.957031 132.609375 161.972656 132.609375 159.53125 C 132.609375 157.085938 134.589844 155.105469 137.03125 155.105469 " fill-opacity="1" fill-rule="nonzero"/></g><g clip-path="url(#bf7173aabc)"><path fill="#80cc28" d="M 267.5 127.628906 C 267.5 127.628906 225.644531 124.238281 234.15625 155.964844 C 253.421875 164.683594 258.660156 149.539062 262.113281 138.28125 C 264.023438 132.058594 267.5 127.628906 267.5 127.628906 " fill-opacity="1" fill-rule="nonzero"/></g><path fill="#1c6434" d="M 246.722656 146.109375 C 246.722656 144.726562 245.601562 143.605469 244.21875 143.605469 C 242.839844 143.605469 241.71875 144.726562 241.71875 146.109375 C 241.71875 147.492188 242.839844 148.613281 244.21875 148.613281 C 245.601562 148.613281 246.722656 147.492188 246.722656 146.109375 Z M 248.644531 146.109375 C 248.644531 148.554688 246.664062 150.535156 244.21875 150.535156 C 243.53125 150.535156 242.882812 150.371094 242.300781 150.089844 L 219.382812 173.019531 L 219.382812 187.777344 L 206.902344 200.269531 L 206.902344 217.855469 L 204.109375 217.855469 L 204.109375 199.109375 L 216.589844 186.621094 L 216.589844 171.863281 L 240.296875 148.144531 C 239.980469 147.535156 239.796875 146.84375 239.796875 146.109375 C 239.796875 143.664062 241.777344 141.683594 244.21875 141.683594 C 246.664062 141.683594 248.644531 143.664062 248.644531 146.109375 " fill-opacity="1" fill-rule="nonzero"/><path fill="#1c6434" d="M 152.4375 92.34375 C 151.058594 92.34375 149.9375 93.464844 149.9375 94.84375 C 149.9375 96.226562 151.058594 97.347656 152.4375 97.347656 C 153.820312 97.347656 154.941406 96.226562 154.941406 94.84375 C 154.941406 93.464844 153.820312 92.34375 152.4375 92.34375 Z M 154.003906 98.980469 L 154.003906 123.894531 L 177.144531 147.046875 L 177.144531 168.816406 L 174.351562 168.816406 L 174.351562 148.203125 L 151.210938 125.050781 L 151.210938 99.09375 C 149.367188 98.558594 148.015625 96.863281 148.015625 94.84375 C 148.015625 92.402344 149.996094 90.421875 152.4375 90.421875 C 154.882812 90.421875 156.859375 92.402344 156.859375 94.84375 C 156.859375 96.738281 155.671875 98.347656 154.003906 98.980469 " fill-opacity="1" fill-rule="nonzero"/><path fill="#1c6434" d="M 169.628906 115.136719 C 168.246094 115.136719 167.128906 116.257812 167.128906 117.640625 C 167.128906 119.023438 168.246094 120.144531 169.628906 120.144531 C 171.011719 120.144531 172.132812 119.023438 172.132812 117.640625 C 172.132812 116.257812 171.011719 115.136719 169.628906 115.136719 Z M 169.628906 122.0625 C 167.1875 122.0625 165.207031 120.085938 165.207031 117.640625 C 165.207031 115.195312 167.1875 113.214844 169.628906 113.214844 C 172.074219 113.214844 174.050781 115.195312 174.050781 117.640625 C 174.050781 118.324219 173.894531 118.972656 173.613281 119.550781 L 188.140625 134.085938 L 188.140625 222.265625 L 185.347656 222.265625 L 185.347656 135.242188 L 171.675781 121.5625 C 171.0625 121.882812 170.367188 122.0625 169.628906 122.0625 " fill-opacity="1" fill-rule="nonzero"/><g fill="#1c6434" fill-opacity="1"><g transform="translate(125.644939, 271.921681)"><g><path d="M 17.25 0.6875 C 24.6875 0.6875 30.53125 -4.296875 31.90625 -11.734375 L 25.328125 -11.734375 C 24.25 -7.953125 21.203125 -5.546875 17.25 -5.546875 C 12.125 -5.546875 8.296875 -9.59375 8.296875 -15 C 8.296875 -20.421875 12.125 -24.515625 17.25 -24.515625 C 21.03125 -24.515625 24.03125 -22.28125 25.28125 -18.75 L 31.78125 -18.75 C 30.40625 -25.890625 24.546875 -30.75 17.25 -30.75 C 8.390625 -30.75 1.671875 -23.953125 1.671875 -15 C 1.671875 -6.109375 8.390625 0.6875 17.25 0.6875 Z M 17.25 0.6875 "/></g></g></g><g fill="#1c6434" fill-opacity="1"><g transform="translate(158.794981, 271.921681)"><g><path d="M 20 0 L 27.265625 0 L 20.59375 -11.359375 C 23.953125 -12.984375 26.09375 -16.171875 26.09375 -20.125 C 26.09375 -25.921875 21.59375 -30.09375 15.5625 -30.09375 L 3.4375 -30.09375 L 3.4375 0 L 9.9375 0 L 9.9375 -10.234375 L 14.109375 -10.234375 Z M 9.9375 -24.078125 L 15.140625 -24.078125 C 17.890625 -24.078125 19.484375 -22.40625 19.484375 -20.171875 C 19.484375 -17.890625 17.890625 -16.25 15.140625 -16.25 L 9.9375 -16.25 Z M 9.9375 -24.078125 "/></g></g></g><g fill="#1c6434" fill-opacity="1"><g transform="translate(187.215442, 271.921681)"><g><path d="M 17.71875 0.6875 C 26.875 0.6875 33.71875 -6.0625 33.71875 -15.046875 C 33.71875 -24 26.875 -30.75 17.71875 -30.75 C 8.515625 -30.75 1.640625 -23.953125 1.640625 -15.046875 C 1.640625 -6.109375 8.515625 0.6875 17.71875 0.6875 Z M 17.71875 -5.46875 C 12.34375 -5.46875 8.25 -9.625 8.25 -15.046875 C 8.25 -20.46875 12.34375 -24.59375 17.71875 -24.59375 C 23.09375 -24.59375 27.09375 -20.515625 27.09375 -15.046875 C 27.09375 -9.59375 23.09375 -5.46875 17.71875 -5.46875 Z M 17.71875 -5.46875 "/></g></g></g><g fill="#1c6434" fill-opacity="1"><g transform="translate(222.601281, 271.921681)"><g><path d="M 15 -30.09375 L 3.4375 -30.09375 L 3.4375 0 L 9.9375 0 L 9.9375 -9.375 L 15 -9.375 C 21.0625 -9.375 25.625 -13.796875 25.625 -19.734375 C 25.625 -25.671875 21.03125 -30.09375 15 -30.09375 Z M 14.703125 -15.390625 L 9.9375 -15.390625 L 9.9375 -24.03125 L 14.703125 -24.03125 C 17.28125 -24.03125 19.046875 -22.234375 19.046875 -19.734375 C 19.046875 -17.25 17.28125 -15.390625 14.703125 -15.390625 Z M 14.703125 -15.390625 "/></g></g></g><g fill="#1c6434" fill-opacity="1"><g transform="translate(138.903174, 290.49666)"><g><path d="M 14.84375 0 L 13.140625 -11.09375 L 10.71875 -11.09375 L 7.71875 -4.28125 L 4.703125 -11.09375 L 2.3125 -11.09375 L 0.578125 0 L 3.015625 0 L 4.109375 -7.21875 L 7.421875 -0.015625 L 8 -0.015625 L 11.3125 -7.21875 L 12.40625 0 Z M 14.84375 0 "/></g></g></g><g fill="#1c6434" fill-opacity="1"><g transform="translate(158.250167, 290.49666)"><g><path d="M 8.625 0 L 11.234375 0 L 6.75 -11.09375 L 4.484375 -11.09375 L 0.125 0 L 2.671875 0 L 3.4375 -2.09375 L 7.84375 -2.09375 Z M 5.640625 -8.15625 L 7.09375 -4.1875 L 4.1875 -4.1875 Z M 5.640625 -8.15625 "/></g></g></g><g fill="#1c6434" fill-opacity="1"><g transform="translate(173.525295, 290.49666)"><g><path d="M 8.28125 -11.09375 L 8.28125 -4.328125 L 3.421875 -11.09375 L 1.265625 -11.09375 L 1.265625 0 L 3.609375 0 L 3.609375 -6.921875 L 8.640625 0 L 10.640625 0 L 10.640625 -11.09375 Z M 8.28125 -11.09375 "/></g></g></g><g fill="#1c6434" fill-opacity="1"><g transform="translate(189.33912, 290.49666)"><g><path d="M 8.625 0 L 11.234375 0 L 6.75 -11.09375 L 4.484375 -11.09375 L 0.125 0 L 2.671875 0 L 3.4375 -2.09375 L 7.84375 -2.09375 Z M 5.640625 -8.15625 L 7.09375 -4.1875 L 4.1875 -4.1875 Z M 5.640625 -8.15625 "/></g></g></g><g fill="#1c6434" fill-opacity="1"><g transform="translate(204.614247, 290.49666)"><g><path d="M 6.125 -5.78125 L 6.125 -3.9375 L 9.453125 -3.9375 C 9.046875 -2.796875 7.796875 -2.046875 6.375 -2.046875 C 4.375 -2.046875 3.0625 -3.46875 3.0625 -5.53125 C 3.0625 -7.609375 4.40625 -9.03125 6.375 -9.03125 C 7.765625 -9.03125 8.9375 -8.28125 9.40625 -7.09375 L 11.890625 -7.09375 C 11.359375 -9.578125 9.078125 -11.328125 6.328125 -11.328125 C 3.046875 -11.328125 0.625 -8.84375 0.625 -5.53125 C 0.625 -2.203125 3.109375 0.25 6.375 0.25 C 9.703125 0.25 12.03125 -2.3125 12.03125 -5.78125 Z M 6.125 -5.78125 "/></g></g></g><g fill="#1c6434" fill-opacity="1"><g transform="translate(221.141037, 290.49666)"><g><path d="M 3.65625 -2.21875 L 3.65625 -4.5 L 7.515625 -4.5 L 7.515625 -6.671875 L 3.65625 -6.671875 L 3.65625 -8.875 L 7.921875 -8.875 L 7.921875 -11.09375 L 1.265625 -11.09375 L 1.265625 0 L 8.09375 0 L 8.09375 -2.21875 Z M 3.65625 -2.21875 "/></g></g></g><g fill="#1c6434" fill-opacity="1"><g transform="translate(233.896998, 290.49666)"><g><path d="M 7.375 0 L 10.046875 0 L 7.59375 -4.1875 C 8.828125 -4.78125 9.625 -5.953125 9.625 -7.421875 C 9.625 -9.546875 7.953125 -11.09375 5.734375 -11.09375 L 1.265625 -11.09375 L 1.265625 0 L 3.65625 0 L 3.65625 -3.765625 L 5.203125 -3.765625 Z M 3.65625 -8.875 L 5.578125 -8.875 C 6.59375 -8.875 7.171875 -8.25 7.171875 -7.4375 C 7.171875 -6.59375 6.59375 -5.984375 5.578125 -5.984375 L 3.65625 -5.984375 Z M 3.65625 -8.875 "/></g></g></g></svg>